<svg width="125" height="27" viewBox="0 0 125 27" fill="none" xmlns="http://www.w3.org/2000/svg">
<path d="M0.466797 0.382934H9.46683C15.2115 0.382934 18.8498 4.97871 18.8498 11.2979C18.8498 14.7447 17.7008 17.8085 15.4029 19.7234C13.8711 21.0638 11.7646 21.8298 9.08381 21.8298H0.466797V0.382934ZM8.79658 18.0958C12.9136 18.0958 14.4455 15.6064 14.4455 11.3936C14.4455 7.18088 12.6264 4.21275 8.89233 4.21275H4.77531V18.1915H8.79658V18.0958ZM19.52 14.1703C19.52 9.57448 22.7753 6.03189 27.5625 6.03189C32.3498 6.03189 35.6051 9.57448 35.6051 14.1703C35.6051 18.7659 32.3498 22.3085 27.5625 22.3085C22.7753 22.3085 19.52 18.6702 19.52 14.1703ZM31.3923 14.1703C31.3923 11.2021 29.9562 9.09574 27.4668 9.09574C24.9774 9.09574 23.5413 11.1064 23.5413 14.1703C23.5413 17.234 24.8817 19.149 27.4668 19.149C30.0519 19.149 31.3923 17.1383 31.3923 14.1703ZM36.371 14.1703C36.371 9.57448 39.3392 6.03189 44.0306 6.03189C48.0519 6.03189 50.4455 8.32978 51.02 11.6809H46.9987C46.7115 10.3404 45.6583 9.28726 44.2221 9.28726C41.7328 9.28726 40.4881 11.2021 40.4881 14.1703C40.4881 17.0426 41.637 19.0532 44.1264 19.0532C45.754 19.0532 46.903 18.1915 47.1902 16.468H51.2114C50.9242 19.7234 48.4349 22.3085 44.3179 22.3085C39.4349 22.2128 36.371 18.6702 36.371 14.1703ZM61.9349 21.8298V20.0106H61.8391C60.7859 21.4468 59.637 22.2128 57.4348 22.2128C53.9881 22.2128 52.0732 20.0106 52.0732 16.6596V6.41492H56.0944V15.9894C56.0944 17.8085 56.8604 18.7659 58.6795 18.7659C60.5944 18.7659 61.7434 17.3298 61.7434 15.3191V6.41492H65.8604V21.7341H61.9349V21.8298ZM85.6795 0.478738H89.7966V4.30855H85.6795V0.478738ZM85.6795 6.41492H89.7966V21.7341H85.6795V6.41492ZM91.4242 22.2128H95.4455C95.7323 23.1702 96.6903 23.9362 98.5096 23.9362C100.807 23.9362 101.956 22.7873 101.956 20.7766V19.0532H101.86C100.999 20.1063 99.7544 20.8723 97.8392 20.8723C94.3925 20.8723 91.0413 18.1915 91.0413 13.5C91.0413 8.90423 93.8181 6.03189 97.6474 6.03189C99.5626 6.03189 100.999 6.79786 101.86 8.04255H101.956V6.41492H105.882V20.5851C105.882 22.7873 105.211 24.2234 104.062 25.2766C102.817 26.5213 100.807 27 98.5096 27C94.4884 27 91.9029 25.2766 91.4242 22.2128ZM102.243 13.4043C102.243 11.2021 100.998 9.28726 98.6055 9.28726C96.4985 9.28726 95.1578 10.9149 95.1578 13.5C95.1578 16.0851 96.4985 17.617 98.6055 17.617C101.19 17.617 102.243 15.7021 102.243 13.4043ZM111.722 8.52129C112.871 6.89366 114.307 6.03189 116.317 6.03189C119.477 6.03189 121.583 8.42549 121.583 11.7766V21.8298H117.466V12.4468C117.466 10.8192 116.509 9.67019 114.786 9.67019C112.967 9.67019 111.626 11.1064 111.626 13.2128V21.9255H107.701V6.60634H111.722V8.52129ZM76.3923 8.90423C73.2327 8.23407 71.7966 7.65953 71.7966 5.93618C71.7966 4.40426 73.3284 3.44678 75.6263 3.44678C77.7327 3.44678 79.3604 4.40426 79.7434 6.41492H83.9561C83.4775 2.29789 80.4136 0 75.6263 0C70.8391 0 67.3923 2.20208 67.3923 6.41492C67.3923 10.9149 70.9348 11.8724 74.7647 12.734C78.0199 13.5 80.0306 13.8829 80.0306 15.9894C80.0306 18 78.1157 18.7659 75.9135 18.7659C72.8498 18.7659 71.4136 17.7127 71.1264 15.1276H66.9136C67.1051 19.6277 70.3604 22.2128 76.2009 22.2128C80.9881 22.2128 84.5306 19.8191 84.5306 15.4149C84.4348 10.9149 80.7965 9.8617 76.3923 8.90423ZM123.307 9.28726C122.446 9.28726 121.679 8.52129 121.679 7.65953C121.679 6.79786 122.446 6.03189 123.307 6.03189C124.169 6.03189 124.935 6.79786 124.935 7.65953C124.935 8.52129 124.169 9.28726 123.307 9.28726ZM123.307 6.31912C122.541 6.31912 121.967 6.89366 121.967 7.65953C121.967 8.42549 122.541 9.00003 123.307 9.00003C124.073 9.00003 124.647 8.42549 124.647 7.65953C124.647 6.89366 124.073 6.31912 123.307 6.31912Z" fill="black"/>
<path d="M122.734 6.79823H123.309C123.5 6.79823 123.691 6.79823 123.787 6.89394C123.883 6.98965 123.979 7.08545 123.979 7.27687C123.979 7.56419 123.787 7.6599 123.691 7.75561L124.075 8.42586H123.691L123.405 7.85141H123.022V8.42586H122.734V6.79823ZM123.022 7.08545V7.56419H123.309C123.405 7.56419 123.596 7.56419 123.596 7.27687C123.596 7.27687 123.596 7.08545 123.5 7.08545H123.022Z" fill="black"/>
</svg>
