<svg width="96" height="34" viewBox="0 0 96 34" fill="none" xmlns="http://www.w3.org/2000/svg">
<path fill-rule="evenodd" clip-rule="evenodd" d="M40.9604 11.2299C42.7144 10.8967 44.4684 10.5459 46.2049 10.2126C46.1874 17.9829 46.1874 25.7357 46.2049 33.4885C44.4684 33.1376 42.7144 32.7693 40.9779 32.436C40.9253 31.752 40.9604 31.0679 40.9604 30.3838C40.9428 24.0167 40.9428 17.6321 40.9604 11.2299ZM83.3901 14.6678C81.9168 14.7029 80.4083 15.1589 79.2682 16.1061C78.321 16.8779 77.637 17.9303 77.2511 19.0879C76.8301 20.3333 76.7424 21.6839 76.9003 22.9994C77.0757 24.5079 77.672 25.9988 78.7244 27.1038C79.5488 27.9808 80.6714 28.5947 81.8466 28.8578C83.32 29.1911 84.9161 29.1385 86.3018 28.4895C87.3191 28.0335 88.1611 27.2266 88.7574 26.2794C89.424 25.2095 89.7572 23.9641 89.8625 22.7012C89.9853 21.2805 89.8274 19.8246 89.3012 18.4916C88.8451 17.2988 88.0208 16.2289 86.9157 15.5448C85.8633 14.8958 84.618 14.6152 83.3901 14.6678ZM82.6184 9.7741C85.1617 9.59869 87.8278 10.0723 90.0203 11.4229C91.2482 12.1771 92.3006 13.1769 93.125 14.3521C93.8441 15.4045 94.3703 16.5797 94.7387 17.8075C95.1245 19.123 95.2649 20.5087 95.2824 21.8768C95.2824 24.3851 94.7036 26.946 93.3179 29.0683C92.1076 30.9627 90.2659 32.436 88.1611 33.2078C86.7929 33.7165 85.3546 33.962 83.8988 33.9971C81.1625 34.0497 78.3386 33.3832 76.111 31.7695C74.2166 30.4189 72.8309 28.4369 72.1293 26.2268C71.6382 24.7534 71.4453 23.1748 71.4628 21.6137C71.4803 18.895 72.2697 16.1237 73.9711 13.9837C75.3567 12.2122 77.3388 10.9493 79.4962 10.3178C80.496 10.0021 81.5484 9.82672 82.6184 9.7741ZM7.4235 10.809C8.68639 10.0723 10.1422 9.72148 11.5981 9.73902C13.9134 9.82672 16.141 11.0195 17.4916 12.9138C18.1756 11.9842 19.1228 11.265 20.1402 10.7563C22.4379 9.65131 25.2268 9.47591 27.5947 10.4406C28.6998 10.8967 29.6996 11.5983 30.4713 12.5104C31.2606 13.44 31.7868 14.5626 32.1026 15.7202C32.4358 16.9305 32.5235 18.1934 32.4885 19.4388C32.4885 24.122 32.4885 28.8228 32.4885 33.506C30.752 33.1552 28.998 32.7868 27.2439 32.4536C27.2264 27.9633 27.2439 23.473 27.2264 18.9827C27.2439 17.9478 26.8756 16.8954 26.1389 16.1763C25.3496 15.3694 24.1919 14.9835 23.0694 15.0011C22.0696 14.9835 21.0522 15.2817 20.2629 15.9132C19.3684 16.6148 18.8948 17.7724 18.8948 18.9125C18.8948 23.7712 18.8948 28.6474 18.8948 33.506C17.1408 33.1552 15.3868 32.7868 13.6327 32.4536C13.6152 31.0153 13.6327 29.5594 13.6152 28.1036C13.6152 25.0867 13.6152 22.0698 13.6152 19.0353C13.6503 18.0005 13.2995 16.9305 12.5628 16.1938C11.9138 15.5273 11.0192 15.1414 10.1247 15.0362C9.26522 14.9485 8.38821 15.0186 7.58136 15.3519C6.73943 15.7027 6.02028 16.3692 5.6344 17.1936C5.37129 17.7549 5.24851 18.3688 5.24851 18.9827C5.24851 22.7714 5.24851 26.5601 5.24851 30.3488C5.26605 31.4012 5.23097 32.4536 5.26605 33.506C3.51203 33.1727 1.77555 32.7868 0.0390707 32.4711C0.00399026 31.8572 0.0566109 31.2258 0.00399026 30.6294C0.0215305 29.9278 0.0215305 29.2262 0.00399026 28.5246C0.0566109 27.8756 0.00399026 27.2091 0.0215305 26.5601C0.0215305 24.7008 0.0215305 22.8416 0.0215305 20.9823C0.00399026 19.8246 0.0390707 18.6494 0.00399026 17.4918C0.0215305 16.8428 0.0215305 16.1763 0.00399026 15.5273C0.0390707 14.2293 0.0215305 12.9489 0.0215305 11.6509C0.0390707 11.5281 -0.0661706 11.3352 0.0741511 11.265C1.81063 10.9317 3.52957 10.5985 5.26605 10.2652C5.24851 11.0545 5.26605 11.8438 5.26605 12.6332C5.87996 11.8965 6.59911 11.265 7.4235 10.809ZM64.6397 10.0898C65.4816 9.9495 66.3411 9.80918 67.183 9.66885C67.183 11.493 67.183 13.3172 67.183 15.1414C66.3411 15.2993 65.4991 15.4571 64.6572 15.5974C63.3943 15.8079 62.0788 16.1763 61.1316 17.0884C60.3598 17.8075 59.9915 18.8599 59.9213 19.8948C59.8687 20.6315 59.9038 21.3682 59.9038 22.1224C59.9038 25.9111 59.9038 29.6998 59.9038 33.4885C58.448 33.1903 56.9921 32.8921 55.5187 32.6114C55.2381 32.5588 54.975 32.4887 54.6768 32.4536C54.6067 32.0502 54.6593 31.6467 54.6417 31.2433C54.6417 27.2091 54.6417 23.1924 54.6417 19.1581C54.6768 17.8952 54.8873 16.6148 55.4135 15.4396C55.9222 14.2644 56.8167 13.2646 57.8691 12.5279C59.2724 11.5632 60.9036 10.9844 62.5524 10.5459C63.254 10.388 63.9205 10.1951 64.6397 10.0898ZM43.0652 0.0392819C43.9071 -0.0659594 44.8192 0.0217416 45.5384 0.530408C46.3628 1.07415 46.8188 2.05641 46.8363 3.02112C46.889 3.30176 46.8188 3.59994 46.8188 3.88059C46.7311 4.7576 46.2751 5.59953 45.5208 6.09065C44.7315 6.61686 43.7142 6.70456 42.7846 6.51162C42.0128 6.35376 41.2936 5.86263 40.8551 5.17856C40.3465 4.37171 40.2588 3.35438 40.4517 2.42475C40.6271 1.54774 41.2235 0.74089 42.0303 0.355006C42.3636 0.197144 42.7144 0.0919025 43.0652 0.0392819Z" fill="#050038"/>
</svg>
